<svg xmlns="http://www.w3.org/2000/svg" viewBox="0 0 39.08386 87.5451"><defs><style>.a{fill:#1d1d1b;opacity:0.16;isolation:isolate;}.b{fill:#637884;}.c{fill:#5c6f7a;}.d{fill:#6d8393;}.e{fill:#88939e;}.f{fill:#ededed;}.g,.h,.i,.j,.k,.l,.m,.n,.o,.p,.q,.r,.s,.t,.u,.v{fill:none;stroke:#f6f6f6;stroke-miterlimit:10;}.g{stroke-width:0.1829px;}.h{stroke-width:0.18571px;}.i{stroke-width:0.18853px;}.j{stroke-width:0.19135px;}.k{stroke-width:0.19416px;}.l{stroke-width:0.19698px;}.m{stroke-width:0.19979px;}.n{stroke-width:0.20261px;}.o{stroke-width:0.20542px;}.p{stroke-width:0.20824px;}.q{stroke-width:0.21106px;}.r{stroke-width:0.21387px;}.s{stroke-width:0.21669px;}.t{stroke-width:0.2195px;}.u{stroke-width:0.22232px;}.v{stroke-width:0.22514px;}.w{fill:#fff;}.x{fill:#b2b2b2;}</style></defs><path class="a" d="M.76829,0,.08322,3.10877A3.55161,3.55161,0,0,0,.3605,5.43218L.72636,6.181,1.94617,0Z"/><path class="b" d="M2.42679,2.96372v74.5749a.93075.93075,0,0,0,.92961.93184l.01939-.00019,1.08292,1.21114v.19218a.93045.93045,0,0,0,.92952.93137H5.466l3.03947,3.39458v.495a.40137.40137,0,0,0,.39575.40172h.402l.5413.59988v.54729a.93453.93453,0,0,0,.93166.93166h.39006l.01762-72.91571Z"/><path class="c" d="M9.30321,13.31035v73.5969a.2721.2721,0,0,0,.27349.26781l.6334-.19781L9.84451,14.00917Z"/><path class="d" d="M.72636,2.763V77.3379c0,1.0947.43073,1.514.949,1.50238l1.08291,1.21114v.19218a.93045.93045,0,0,0,.92952.93138h.07776L6.805,84.56956v.495a.40136.40136,0,0,0,.39575.40171h.402l.54131.59989v.54729a.93452.93452,0,0,0,.93165.93165H9.4658l.01763-72.9157Z"/><path class="e" d="M5.24037,83.66807,6,83.67874V10.147L4.30687,7.952V82.73452a.93351.93351,0,0,0,.93349.93355Z"/><path class="c" d="M3.76556,7.25229V81.53605a.27089.27089,0,0,0,.26783.26781h.27377V7.95111Z"/><path class="e" d="M7.6028,12.20143V85.79834a.27209.27209,0,0,0,.2735.2678h.2678V12.90025Z"/><path class="c" d="M6.264,10.48107v73.821a.27208.27208,0,0,0,.2735.26782h.2678v-73.39Z"/><path class="c" d="M2.217,5.296V79.77765a.27089.27089,0,0,0,.26783.2678h.27349V5.99482Z"/><path class="e" d="M1.67537,4.63812V79.17805a.27088.27088,0,0,0,.26781.26782H2.217V5.331Z"/><polygon class="f" points="38.348 50.906 39.084 49.012 0.768 0 0.759 2.824 38.348 50.906"/><circle class="g" cx="1.00589" cy="3.33667" r="0.27811"/><circle class="h" cx="1.6607" cy="4.18277" r="0.28239"/><circle class="i" cx="2.31552" cy="5.02886" r="0.28668"/><circle class="j" cx="2.97034" cy="5.87496" r="0.29096"/><circle class="k" cx="3.62517" cy="6.72106" r="0.29524"/><circle class="l" cx="4.27997" cy="7.56716" r="0.29952"/><circle class="m" cx="4.9348" cy="8.41326" r="0.3038"/><circle class="n" cx="5.5896" cy="9.25935" r="0.30808"/><circle class="o" cx="6.24441" cy="10.10545" r="0.31236"/><circle class="p" cx="6.89925" cy="10.95155" r="0.31665"/><circle class="q" cx="7.55405" cy="11.79765" r="0.32093"/><circle class="r" cx="8.20888" cy="12.64375" r="0.32521"/><circle class="s" cx="8.86368" cy="13.48984" r="0.32949"/><circle class="t" cx="9.51851" cy="14.33594" r="0.33377"/><circle class="u" cx="10.17332" cy="15.18204" r="0.33805"/><circle class="v" cx="10.82812" cy="16.02814" r="0.34234"/><polygon class="w" points="0.768 0 2.548 0 39.084 46.512 39.084 49.012 0.768 0"/><polygon class="x" points="0.759 2.192 38.499 50.517 38.348 50.906 0.759 2.824 0.759 2.192"/></svg>